{"title":"Kill Bill-Vol.1720p.6.channelsBRRip.Hindi.dubbed.aaaevilacharya","uid":5923446,"size":701926794,"categoryP":"video","categoryS":"hd___movies","magnet":"?xt=urn:btih:04322ab4243995f67d11e7b0a71965470af26d59&amp;dn=Kill+Bill-Vol.1720p.6.channelsBRRip.Hindi.dubbed.aaaevilacharya&amp;tr=udp%3A%2F%2Ftracker.openbittorrent.com%3A80&amp;tr=udp%3A%2F%2Fopen.demonii.com%3A1337&amp;tr=udp%3A%2F%2Ftracker.coppersurfer.tk%3A6969&amp;tr=udp%3A%2F%2Fexodus.desync.com%3A6969","seeders":1,"leechers":1,"uploader":"achaevil","files":3,"time":1288513976,"description":"General\nComplete name : Kill Bill-Vol.1[720p.6.channels]BRRip.Hindi.dubbed.aaaevilacharya\nFormat : Matroska\nFile size : 669 MiB\nDuration : 1h 50mn\nOverall bit rate : 845 Kbps\nEncoded date : UTC 2010-10-31 16:45:52\n\nVideo\nID : 1\nFormat : MPEG-4 Visual\nFormat profile : Advanced Simple@L5\nFormat settings, BVOP : Yes\nFormat settings, QPel : No\nFormat settings, GMC : No warppoints\nFormat settings, Matrix : Default (H.263)\nCodec ID : XVID\nCodec ID/Hint : XviD\nDuration : 1h 50mn\nBit rate : 636 Kbps\nWidth : 1280 pixels\nHeight : 528 pixels\nDisplay aspect ratio : 2.40:1\nFrame rate : 23.976 fps\nColor space : YUV\nChroma subsampling : 4:2:0\nBit depth : 8 bits\nScan type : Progressive\nBits/(Pixel*Frame) : 0.039\nStream size : 504 MiB (75%)\nTitle : kill bill 1.aaaevilacharya\nWriting library : XviD 1.3.0.dev55\nLanguage : Hindi\n\nAudio\nID : 2\nFormat : AC-3\nFormat/Info : Audio Coding 3\nCodec ID : A_AC3\nDuration : 1h 50mn\nBit rate mode : Constant\nBit rate : 192 Kbps\nChannel(s) : 6 channels\nChannel positions : Front: L C R, Side: L R, LFE\nSampling rate : 48.0 KHz\nStream size : 152 MiB (23%)\nTitle : aaaevilacharya\nLanguage : Hindi\n\nscreenshots\n &lt;a href=&quot;\nhttp://img178.imageshack.us/img178/8297/killbillvol1720pbrriphi.jpg&quot; rel=&quot;nofollow&quot; target=&quot;_NEW&quot;&gt;\nhttp://img178.imageshack.us/img178/8297/killbillvol1720pbrriphi.jpg&lt;/a&gt; &lt;a href=&quot;\nhttp://img201.imageshack.us/img201/8297/killbillvol1720pbrriphi.jpg&quot; rel=&quot;nofollow&quot; target=&quot;_NEW&quot;&gt;\nhttp://img201.imageshack.us/img201/8297/killbillvol1720pbrriphi.jpg&lt;/a&gt; &lt;a href=&quot;\nhttp://img827.imageshack.us/img827/8297/killbillvol1720pbrriphi.jpg&quot; rel=&quot;nofollow&quot; target=&quot;_NEW&quot;&gt;\nhttp://img827.imageshack.us/img827/8297/killbillvol1720pbrriphi.jpg&lt;/a&gt; &lt;a href=&quot;\nhttp://img89.imageshack.us/img89/8297/killbillvol1720pbrriphi.jpg&quot; rel=&quot;nofollow&quot; target=&quot;_NEW&quot;&gt;\nhttp://img89.imageshack.us/img89/8297/killbillvol1720pbrriphi.jpg&lt;/a&gt;\n &lt;a href=&quot;\nhttp://img229.imageshack.us/img229/8297/killbillvol1720pbrriphi.jpg&quot; rel=&quot;nofollow&quot; target=&quot;_NEW&quot;&gt;\nhttp://img229.imageshack.us/img229/8297/killbillvol1720pbrriphi.jpg&lt;/a&gt;\n","torrent":{"xt":"urn:btih:04322ab4243995f67d11e7b0a71965470af26d59","amp;dn":"Kill+Bill-Vol.1720p.6.channelsBRRip.Hindi.dubbed.aaaevilacharya","amp;tr":["udp%3A%2F%2Ftracker.openbittorrent.com%3A80","udp%3A%2F%2Fopen.demonii.com%3A1337","udp%3A%2F%2Ftracker.coppersurfer.tk%3A6969","udp%3A%2F%2Fexodus.desync.com%3A6969"],"infoHash":"04322ab4243995f67d11e7b0a71965470af26d59","infoHashBuffer":{"type":"Buffer","data":[4,50,42,180,36,57,149,246,125,17,231,176,167,25,101,71,10,242,109,89]},"announce":[],"urlList":[]}}